<svg width="345" height="345" fill="none" xmlns="http://www.w3.org/2000/svg"><path d="M308.677 158.009a9.78 9.78 0 00-1.319-4.702c-2.334-4.066-7.468-6.654-15.249-7.692-4.502-.6-8.735-1.336-12.582-2.186a138.988 138.988 0 00-35.944-3.205 288.145 288.145 0 00-30.34 2.752c-2.131.324-4.605.718-7.349 1.158-20.376 3.253-61.829 9.87-87.578 4.769-3.497-6.604-4.1-12.504-1.788-17.555 5.018-10.967 22.011-16.106 28.163-17.638 7.282 11.126 16.539 17.973 27.537 20.364 20.455 4.445 39.296-8.219 40.089-8.759a3.438 3.438 0 001.341-3.846 3.43 3.43 0 00-3.277-2.42 10.79 10.79 0 01-5.205-1.772 22.312 22.312 0 01-8.108-8.584c-7.01-12.915-17.128-17.73-22.941-19.493 11.83-28.334-3.551-46.853-4.244-47.662l-.095-.102c-3.709-3.995-1.623-11.24-1.604-11.3a3.427 3.427 0 00-1.047-3.605 3.434 3.434 0 00-3.722-.49c-16.337 7.82-26.065 22.389-28.137 42.13a84.838 84.838 0 00.787 22.477 133.824 133.824 0 00-23.643.507c-3.103.304-62.01 6.62-88.155 53.178-11.507 20.491-12.583 45.092-2.88 65.807 7.914 16.901 21 29.907 38.908 38.727a70.239 70.239 0 00-12.724 18.82c-11.08 24.004-34.5 20.482-35.484 20.321a3.428 3.428 0 00-3.644 1.853 3.43 3.43 0 00.712 4.025c11.134 10.533 25.337 16.738 39.149 15.761 26.208-1.851 47.66-24.491 55.661-34.235a85.94 85.94 0 0110.931-11.223c.149.014.299.02.449.015 16.661-1.062 38.028.091 38.19.101.564.04 1.116.067 1.678.102a51.807 51.807 0 00-15.428 17.291c-5.513 9.891-19.638 30.543-41.492 30.69a27.87 27.87 0 0010.835-25.893 3.433 3.433 0 10-6.823.755 21.7 21.7 0 01-3.383 14.625 23.147 23.147 0 01-12.7 9.013 3.436 3.436 0 00-2.72 3.248 3.436 3.436 0 002.505 3.416 45.429 45.429 0 0012.27 1.744c25.353 0 41.313-23.149 47.505-34.259a44.367 44.367 0 0115.182-16.222 51.474 51.474 0 017.545-3.835c.041-.017.074-.042.114-.061 1.073.013 2.148.029 3.209.029 69.603 0 111.68-28.774 127.284-41.953a20.604 20.604 0 0113.275-4.871h8.498a17.828 17.828 0 0010.036-2.932c7.567-5.11 6.517-13.353 4.652-17.714.13-5.247-.704-29.896-26.9-39.469zM98.66 271.057c-5.798 7.06-26.594 30.217-50.787 31.74-9.352.589-18.35-2.113-26.853-8.042 9.816-1.162 24.444-6.119 32.813-24.252.092-.211 9.442-21.189 24.078-24.848a3.435 3.435 0 002.471-4.155 3.431 3.431 0 00-4.135-2.505 30.109 30.109 0 00-10.287 4.951c-17.834-8.125-30.746-20.465-38.356-36.717-8.767-18.714-7.777-40.97 2.648-59.534 24.5-43.632 82.293-49.655 82.873-49.71.015 0 .029-.007.044-.01h.044c.146-.016 14.63-1.73 26.672-.008a3.437 3.437 0 003.804-4.277 77.424 77.424 0 01-1.565-25c1.613-14.943 7.866-26.103 18.614-33.266a16.159 16.159 0 003.948 10.608c.985 1.197 14.278 18.13 1.481 44.08a3.422 3.422 0 00-.353 1.61 3.43 3.43 0 003.12 3.328c.136.012 13.679 1.414 22.104 16.923a29.169 29.169 0 0010.632 11.206c.036.02.073.043.109.065-6.609 3.019-17.288 6.494-28.136 4.116-9.741-2.131-17.952-8.625-24.401-19.308a3.427 3.427 0 00-1.537-1.358 3.423 3.423 0 00-2.036-.24c-1.128.211-27.747 5.39-35.375 22.025-2.537 5.543-2.691 11.599-.475 18.072a25.679 25.679 0 01-9.321-5.673 18.17 18.17 0 01-4.45-7.028 3.437 3.437 0 00-1.709-2.008 3.442 3.442 0 00-2.628-.204 3.438 3.438 0 00-2.354 3.017 3.43 3.43 0 00.17 1.334 24.918 24.918 0 006.08 9.703c19.571 19.881 79.288 10.344 111.371 5.221 2.723-.435 5.175-.827 7.295-1.148a281.46 281.46 0 0129.605-2.68 132.088 132.088 0 0134.166 3.044c4.036.892 8.462 1.663 13.156 2.289 7.169.956 9.121 2.712 10.604 5.549a23.168 23.168 0 01-4.964 1.015 34.194 34.194 0 01-8.206-.191 95.352 95.352 0 00-52.486 8.337 85.23 85.23 0 00-29.28 23.453c-7.454 9.157-28.209 30.484-59.852 30.736a3.436 3.436 0 00-2.366 5.849 3.432 3.432 0 002.394 1.016h.028c34.558-.275 57.053-23.357 65.119-33.267a78.426 78.426 0 0126.922-21.594 88.25 88.25 0 0148.605-7.726c3.266.466 6.576.537 9.859.212a27.523 27.523 0 007.569-1.764c16.761 5.613 21.701 18.062 23.093 26.2a37.809 37.809 0 00-20.148-6.477h-.041c-38.114-3.322-69.894 25.766-72.348 28.074-28.368 22.836-74.581 28.615-75.042 28.672a4.73 4.73 0 00-.203.03l-23.932 4.336c-1.286.195-11.663 2.072-25.541 13.62a92.257 92.257 0 00-12.324 12.559zm195.883-53.184a154.568 154.568 0 01-29.96 19.429 74.73 74.73 0 006.914-14.313 3.434 3.434 0 00-6.446-2.362c-6.9 18.84-16.045 23.557-16.275 23.67-.03.015-.055.036-.084.05a193.07 193.07 0 01-19.239 6.314 53.026 53.026 0 009.247-17.48c5.998-18.383 12.481-24.613 13.439-25.459a111.356 111.356 0 0123.914-12.446 57.934 57.934 0 00-5.36 9.583 3.338 3.338 0 001.725 4.537 3.977 3.977 0 004.538-1.725c5.761-12.823 12.065-15.79 13.076-16.198a66.336 66.336 0 0117.576-.848c.125.011.261.014.388.013h.092a40.467 40.467 0 00-4.781 11.185 41.58 41.58 0 01-8.764 16.05zM195.05 256.94a32.385 32.385 0 005.212-8.343c.035-.087 3.342-8.335 8.016-13.528a129.988 129.988 0 0028.103-15.108 117.885 117.885 0 00-4.205 11.087c-6.095 18.684-17.088 22.787-18.236 23.169a215.049 215.049 0 01-18.89 2.726v-.003zm-70.066.007c7.516-4.454 12.407-5.253 12.563-5.277.024 0 .045-.013.068-.016.024-.003.057 0 .086-.008l21.898-3.968a30.156 30.156 0 01-8.815 9.621c-5.036-.213-15.309-.559-25.8-.349v-.003zm35.616.874a36.12 36.12 0 007.225-11.453 214.511 214.511 0 0029.426-7.305 67.605 67.605 0 00-3.348 6.946c-3.59 8.132-9.364 11.111-10.959 11.804-7.122.328-14.566.357-22.346.011l.002-.003zm166.484-48.316a11.006 11.006 0 01-6.19 1.757h-8.503c-1.894.006-3.783.21-5.635.608a45.89 45.89 0 003.169-8.236c1.928-7.001 4.634-10.482 5.813-11.742a29.818 29.818 0 0113.5 8.219c.607 1.419 2.32 6.374-2.156 9.397l.002-.003z" fill="#0D2936" fill-opacity=".1"/><path d="M92.347 123.185a3.431 3.431 0 002.624-.118 3.424 3.424 0 001.77-1.942 31.18 31.18 0 01.635-1.608 3.433 3.433 0 00-5.563-3.793 3.433 3.433 0 00-.754 1.106 38.212 38.212 0 00-.772 1.961 3.427 3.427 0 00.913 3.702c.333.304.723.539 1.147.692zm89.66 67.853a3.408 3.408 0 002.003-.648l3.283-2.364a3.434 3.434 0 00-4.013-5.57l-3.283 2.365a3.425 3.425 0 00-1.255 1.715 3.429 3.429 0 003.265 4.502zm-58.438-2.365a3.433 3.433 0 100-6.866 3.433 3.433 0 000 6.866zM86.59 214.991a3.432 3.432 0 101.334.131 3.415 3.415 0 00-1.333-.131zm-17.663-39.677a3.432 3.432 0 101.333.13c-.431-.13-.885-.175-1.333-.13z" fill="#0D2936" fill-opacity=".1"/></svg>