<svg width="26" height="26" viewBox="0 0 26 26" fill="none" xmlns="http://www.w3.org/2000/svg">
<g clip-path="url(#clip0_2638_43689)" filter="url(#filter0_ddd_2638_43689)">
<path d="M14.2462 10.0965C14.2193 10.0965 14.1933 10.0872 14.1725 10.0676C14.1309 10.0276 14.13 9.96216 14.1699 9.92135C14.3294 9.75979 14.5096 9.64075 14.7063 9.56762C14.9585 9.47324 15.1492 9.48259 15.6094 9.5047C15.7047 9.50895 15.8113 9.51405 15.9335 9.51915C16.0592 9.52426 16.3763 9.53616 16.6069 9.53786C16.8322 9.53956 17.217 9.53191 17.964 9.44433C18.5889 9.3712 19.0014 9.32274 19.5768 9.19859C19.5855 9.19689 20.4885 8.99707 21.4557 8.47414C21.5398 8.42907 21.7937 8.29132 21.7859 8.19779C21.7789 8.11191 21.5597 8.01412 21.402 7.97586C20.414 8.02688 19.4373 8.13232 18.4987 8.28962C18.4095 8.30493 16.2984 8.6527 15.1388 8.43077C14.54 8.31598 14.1612 7.98436 14.1456 7.96991C14.1292 7.95545 14.1153 7.9427 14.1084 7.9359C14.0668 7.89593 14.065 7.83131 14.1058 7.78964C14.1456 7.74883 14.2124 7.74713 14.2548 7.78709C14.2618 7.79305 14.273 7.8041 14.2878 7.81685C14.2912 7.82026 14.6413 8.12466 15.1795 8.22755C16.301 8.44183 18.4424 8.08895 18.4641 8.08555C19.4148 7.92654 20.4053 7.82026 21.4072 7.76839C21.4167 7.76839 21.4271 7.76839 21.4366 7.77094C21.5259 7.79135 21.9739 7.90699 21.9965 8.18078C22.0147 8.40696 21.7287 8.56172 21.558 8.6544C20.6515 9.14417 19.7753 9.3678 19.6228 9.39841C19.0369 9.52681 18.6201 9.57528 17.9892 9.64925C17.23 9.73853 16.8357 9.74618 16.6051 9.74363C16.3712 9.74193 16.0514 9.73003 15.9248 9.72493C15.8018 9.71983 15.6943 9.71472 15.599 9.71047C15.1579 9.68921 14.9923 9.68071 14.7817 9.75979C14.6145 9.82271 14.4594 9.92475 14.3216 10.0642C14.3008 10.0855 14.273 10.0957 14.2462 10.0957V10.0965Z" fill="#408F95"/>
<path d="M10.8082 8.97412C10.7909 8.97412 10.7735 8.96987 10.7571 8.96136C10.7059 8.9333 10.6877 8.87123 10.7155 8.82106C10.7796 8.70712 10.8056 8.59829 10.7926 8.4971C10.7458 8.12892 10.1998 7.89084 9.99355 7.80155L9.97535 7.7939C9.95109 7.7837 7.51238 6.69616 5.52432 3.84511C5.34492 3.58747 5.32066 3.37319 5.30853 3.27031L5.30593 3.24735C5.27386 2.99311 5.39952 2.78649 5.46625 2.6751C5.49312 2.63003 5.55118 2.61217 5.59971 2.63343C5.74098 2.69465 5.87877 2.76693 6.00963 2.84856C6.24536 2.99481 6.46375 3.17252 6.65701 3.37659C7.03313 3.77283 7.45518 4.12911 7.86423 4.47433C8.13202 4.70051 8.40848 4.93434 8.6702 5.17668C9.47357 5.92239 10.5898 6.56437 11.9868 7.0856C12.0414 7.10601 12.0683 7.16553 12.0475 7.2191C12.0267 7.27267 11.966 7.29903 11.9114 7.27862C10.4884 6.74718 9.34964 6.09075 8.52547 5.32633C8.26722 5.0874 7.99249 4.85442 7.72644 4.62994C7.31305 4.28131 6.88667 3.92079 6.50708 3.52114C6.43515 3.44547 6.22976 3.22864 5.89697 3.02287C5.80164 2.96335 5.70198 2.90978 5.60058 2.86131C5.54772 2.9574 5.49745 3.08154 5.51565 3.22184L5.51825 3.2482C5.52865 3.34088 5.54858 3.51434 5.69851 3.72947C7.65364 6.53291 10.0378 7.59578 10.0611 7.60599L10.0793 7.61364C10.3151 7.71567 10.9408 7.98777 11.0023 8.47244C11.0205 8.61784 10.9867 8.7692 10.9001 8.9214C10.881 8.95541 10.8446 8.97497 10.8082 8.97497V8.97412Z" fill="#408F95"/>
<path d="M14.1229 7.83131C14.1169 7.83131 14.1108 7.83131 14.1047 7.82961C14.0476 7.81941 14.0094 7.76584 14.019 7.70972C14.2928 6.18513 14.5641 4.86972 14.8249 3.80004C15.2227 2.16746 15.2652 1.99655 15.2808 1.96424C15.2834 1.95914 15.5399 1.41665 15.6352 0.545091C15.6439 0.469414 15.6474 0.360576 15.585 0.293402C15.5564 0.262792 15.5148 0.241534 15.4602 0.23048C15.4567 0.23048 15.4532 0.22878 15.4498 0.227929C15.3752 0.204971 15.305 0.20072 15.2409 0.214324C15.1646 0.23133 15.0381 0.352923 14.8657 0.576552C14.019 1.67344 13.6732 3.05858 13.3386 4.3978C13.1965 4.9658 13.0501 5.55336 12.8663 6.11541C12.8603 6.13411 12.8533 6.15792 12.8455 6.18513C12.7987 6.34839 12.7121 6.65365 12.4703 6.93084C12.3914 7.02098 12.303 7.1026 12.206 7.17488C12.1592 7.20974 12.0933 7.20039 12.0586 7.15447C12.0231 7.10856 12.0326 7.04393 12.0794 7.00992C12.1644 6.947 12.2424 6.87472 12.3108 6.7965C12.5223 6.55416 12.5985 6.28802 12.6436 6.12986C12.6523 6.1001 12.6592 6.07374 12.6661 6.05248C12.8473 5.49809 12.9929 4.91393 13.1341 4.34933C13.4738 2.9897 13.8248 1.58331 14.6984 0.452408C14.9168 0.170109 15.0606 0.0425639 15.1958 0.0128034C15.2955 -0.00930444 15.4012 -0.00335234 15.5087 0.0289591C15.604 0.0493663 15.682 0.091031 15.7401 0.153953C15.8736 0.297654 15.8519 0.500876 15.8441 0.567199C15.7444 1.47617 15.4818 2.02971 15.4706 2.05267C15.4558 2.09859 15.2955 2.75587 15.0294 3.84511C14.7686 4.91393 14.4982 6.22509 14.2252 7.74543C14.2165 7.7956 14.1715 7.83046 14.1212 7.83046L14.1229 7.83131Z" fill="#408F95"/>
<path d="M4.84285 13.9074C4.4364 13.9074 4.13394 13.7646 4.01001 13.5044C3.99181 13.4661 3.99874 13.4219 4.02821 13.3913C5.03264 12.3156 6.35339 11.5912 7.63081 10.8914C8.67077 10.3217 9.7454 9.73243 10.6415 8.95696C10.6848 8.91954 10.7516 8.92294 10.7906 8.96631C10.8287 9.00882 10.8252 9.0743 10.781 9.11256C9.86759 9.90249 8.78257 10.4968 7.73307 11.0725C6.49205 11.7527 5.2103 12.4551 4.23447 13.4763C4.4338 13.7595 4.95638 13.7042 5.1193 13.6795C6.50419 13.4661 7.73307 12.7034 8.92123 11.9662C9.42561 11.6533 9.94646 11.3301 10.4751 11.0504L10.5072 11.0334C10.6458 10.9586 10.9344 10.8038 11.3279 10.7341C11.5437 10.6958 11.7655 10.6865 11.9874 10.706C12.0454 10.7111 12.0879 10.7613 12.0827 10.8183C12.0775 10.8752 12.0264 10.9169 11.9683 10.9118C11.7655 10.8939 11.5619 10.9033 11.3643 10.9373C11.0046 11.0011 10.7464 11.1397 10.6068 11.2145L10.573 11.2324C10.0505 11.5087 9.53221 11.8301 9.03129 12.1405C7.82494 12.8887 6.57785 13.6625 5.14964 13.8827C5.04044 13.8998 4.93731 13.9074 4.83938 13.9074H4.84285Z" fill="#408F95"/>
<path d="M15.7619 17.9999C15.4777 17.9999 15.1657 17.8137 14.8901 17.4694C13.9975 16.3529 13.6222 14.9533 13.2591 13.5988C13.1083 13.0367 12.9523 12.4551 12.7617 11.9033C12.7547 11.882 12.7469 11.8565 12.7374 11.8268C12.6897 11.6686 12.6091 11.405 12.3933 11.1652C12.3231 11.0879 12.2443 11.0173 12.1585 10.9552C12.1117 10.922 12.1013 10.8566 12.1351 10.8107C12.1697 10.7647 12.2356 10.7545 12.2824 10.7877C12.3803 10.8583 12.4713 10.9382 12.5511 11.0275C12.7981 11.3013 12.8899 11.604 12.9393 11.7664C12.9471 11.7936 12.9549 11.8166 12.961 11.8353C13.1542 12.3939 13.3111 12.9789 13.4628 13.5444C13.8207 14.8776 14.1899 16.2568 15.0556 17.3393C15.1579 17.4668 15.502 17.8562 15.8443 17.7823C15.8399 16.3827 15.3893 15.0111 14.9534 13.6838C14.5851 12.5614 14.2037 11.4008 14.0841 10.212C14.0781 10.1551 14.1205 10.1049 14.1786 10.099C14.2367 10.093 14.2878 10.1347 14.2939 10.1916C14.4117 11.3582 14.7887 12.5079 15.1544 13.62C15.6033 14.9865 16.067 16.3997 16.0549 17.8588C16.0549 17.9005 16.0289 17.9379 15.989 17.954C15.9162 17.9829 15.8399 17.9974 15.7611 17.9974L15.7619 17.9999Z" fill="#408F95"/>
<path d="M15.0421 1.43948C14.9901 1.43948 14.9407 1.42588 14.8991 1.39952C14.7518 1.30514 14.7674 1.09936 14.8133 0.984573C14.8627 0.86128 14.9832 0.733735 15.1305 0.746489C15.2007 0.752441 15.2466 0.788154 15.2648 0.801759C15.3862 0.894441 15.4503 1.10191 15.3524 1.26177C15.3012 1.3451 15.212 1.40887 15.114 1.43098C15.0898 1.43608 15.0655 1.43948 15.0421 1.43948ZM15.0144 1.22606C15.0256 1.23286 15.0447 1.23456 15.0664 1.22946C15.108 1.22011 15.1504 1.19035 15.1721 1.15548C15.2137 1.08746 15.1773 0.997328 15.1348 0.964166C15.1279 0.959064 15.1201 0.952262 15.1123 0.952262C15.088 0.948861 15.0334 1.00073 15.0101 1.06025C14.9867 1.11892 14.9841 1.20735 15.0144 1.22691V1.22606Z" fill="#408F95"/>
<path d="M14.7775 2.32475C14.7342 2.32475 14.6909 2.31284 14.6554 2.28903C14.599 2.25162 14.5635 2.187 14.5592 2.11217C14.554 2.03139 14.5852 1.95402 14.6424 1.9047C14.6961 1.85878 14.7741 1.83752 14.8503 1.84858C14.9136 1.85793 14.9647 1.88769 14.9925 1.93276C15.0098 1.95912 15.0167 1.99228 15.015 2.0399C15.0124 2.10707 15.0089 2.21931 14.911 2.28393C14.8711 2.31029 14.8243 2.3239 14.7784 2.3239L14.7775 2.32475ZM14.7732 2.11727C14.7775 2.11727 14.7871 2.11727 14.7914 2.11387C14.7983 2.10707 14.8009 2.07646 14.8018 2.0535C14.7931 2.0535 14.7845 2.0569 14.7793 2.06115C14.7663 2.07306 14.7645 2.10707 14.7723 2.11812L14.7732 2.11727Z" fill="#408F95"/>
<path d="M14.32 3.86367C14.2749 3.86367 14.2298 3.85262 14.19 3.82966C14.0799 3.76674 14.0522 3.63919 14.0626 3.54906C14.0756 3.43172 14.1562 3.3637 14.209 3.31948C14.2472 3.28717 14.294 3.25401 14.3572 3.25061C14.4387 3.2455 14.5202 3.29482 14.5592 3.3739C14.5904 3.43767 14.5904 3.49464 14.586 3.54736C14.5782 3.63834 14.567 3.76249 14.4526 3.82881C14.4127 3.85177 14.3659 3.86367 14.32 3.86367ZM14.2957 3.6511C14.3113 3.6596 14.333 3.6579 14.3451 3.6511C14.3668 3.63834 14.372 3.57797 14.3763 3.52865C14.3798 3.49124 14.3763 3.47849 14.3702 3.46403C14.3702 3.46233 14.3685 3.46148 14.3676 3.45978C14.3642 3.46233 14.359 3.46573 14.3512 3.47253C14.3035 3.51335 14.2758 3.53716 14.2723 3.57202C14.2706 3.58392 14.2714 3.63664 14.2957 3.65025V3.6511Z" fill="#408F95"/>
<path d="M13.4196 6.62042C13.3841 6.62042 13.3494 6.61362 13.3165 6.59661C13.2281 6.55155 13.1735 6.44356 13.1683 6.30666C13.1639 6.18252 13.2038 6.02351 13.3277 5.94954C13.4343 5.88576 13.6068 5.88491 13.6943 5.98525C13.7273 6.02266 13.7377 6.06348 13.7446 6.10259C13.7654 6.21908 13.7931 6.37894 13.6744 6.50478C13.6129 6.57025 13.5141 6.62127 13.4196 6.62127V6.62042ZM13.4135 6.41295C13.4283 6.41805 13.4846 6.40019 13.5201 6.36278C13.5643 6.31602 13.5557 6.24289 13.5375 6.1366C13.5349 6.1213 13.5331 6.11619 13.5323 6.11619C13.5227 6.10939 13.4673 6.10769 13.4369 6.12555C13.4031 6.14595 13.3789 6.21398 13.378 6.2871C13.378 6.36618 13.404 6.407 13.4127 6.41295H13.4135Z" fill="#408F95"/>
<path d="M13.4464 7.27098C13.4299 7.27098 13.4134 7.26758 13.3978 7.25908L13.0668 7.08902C13.0148 7.06266 12.9948 7.00059 13.0217 6.94957C13.0486 6.8994 13.1118 6.879 13.1638 6.90535L13.4949 7.07541C13.5469 7.10177 13.5668 7.16385 13.54 7.21486C13.5209 7.25058 13.4845 7.27013 13.4464 7.27013V7.27098Z" fill="#408F95"/>
<path d="M13.1537 8.19695C13.1459 8.19695 13.1381 8.19695 13.1303 8.1944C12.9656 8.15869 12.8243 8.04815 12.7507 7.9002C12.7255 7.84918 12.7472 7.78711 12.8001 7.76245C12.8521 7.73779 12.9153 7.75905 12.9405 7.81091C12.9855 7.9019 13.0757 7.97162 13.1762 7.99373C13.2334 8.00648 13.2689 8.06175 13.2559 8.11702C13.2447 8.16549 13.2013 8.1978 13.1528 8.1978L13.1537 8.19695Z" fill="#408F95"/>
<path d="M11.9435 8.71651C11.9115 8.71651 11.8803 8.70291 11.8595 8.6757C11.8239 8.63063 11.8335 8.56516 11.8794 8.53115C11.9375 8.48778 11.9799 8.42571 11.999 8.35684C12.0146 8.30157 12.0718 8.26926 12.1281 8.28456C12.1845 8.29987 12.2174 8.35599 12.2018 8.41126C12.1706 8.52349 12.1013 8.62468 12.0068 8.69526C11.9877 8.70971 11.9652 8.71651 11.9427 8.71651H11.9435Z" fill="#408F95"/>
<path d="M11.2123 7.9418C11.162 7.9418 11.1178 7.90694 11.1092 7.85677C11.0988 7.80065 11.136 7.74708 11.1941 7.73603C11.2617 7.72412 11.3276 7.68756 11.3726 7.63739C11.4116 7.59488 11.4775 7.59063 11.5217 7.62889C11.565 7.66715 11.5693 7.73178 11.5303 7.77514C11.4532 7.86102 11.3466 7.91969 11.2322 7.9401C11.2262 7.94095 11.2192 7.9418 11.2132 7.9418H11.2123Z" fill="#408F95"/>
<path d="M13.3009 9.22316C13.2532 9.22316 13.2099 9.1917 13.1986 9.14408C13.1787 9.06075 13.1813 8.97402 13.2082 8.89324C13.2255 8.83882 13.2853 8.80906 13.3408 8.82607C13.3962 8.84308 13.4266 8.90175 13.4092 8.95617C13.3945 9.00038 13.3928 9.05055 13.404 9.09561C13.4179 9.15088 13.3832 9.207 13.326 9.22061C13.3174 9.22231 13.3096 9.22316 13.3009 9.22316Z" fill="#408F95"/>
<path d="M14.6582 9.1968C14.6088 9.1968 14.5646 9.16194 14.555 9.11262L14.5056 8.85243C14.4952 8.79631 14.5325 8.74274 14.5897 8.73169C14.6469 8.72148 14.7015 8.75805 14.7128 8.81417L14.7622 9.07436C14.7726 9.13048 14.7353 9.18405 14.6781 9.1951C14.672 9.19595 14.6651 9.1968 14.659 9.1968H14.6582Z" fill="#408F95"/>
<path d="M12.4775 9.6085C12.4775 9.6085 12.4706 9.6085 12.4671 9.6085C12.3475 9.59745 12.247 9.50137 12.2314 9.38487C12.2236 9.3279 12.2652 9.27689 12.3224 9.26923C12.3796 9.26158 12.4325 9.3024 12.4403 9.35851C12.4429 9.37892 12.4654 9.40103 12.4871 9.40273C12.5451 9.40783 12.5876 9.45885 12.5824 9.51497C12.5772 9.56854 12.5313 9.6085 12.4775 9.6085Z" fill="#408F95"/>
<path d="M12.3492 10.3236C12.3396 10.3236 12.3292 10.3219 12.3197 10.3193C12.1802 10.2794 12.0779 10.1476 12.0762 10.0047C12.0762 9.94776 12.1221 9.901 12.1802 9.90015H12.181C12.2391 9.90015 12.2859 9.94606 12.2868 10.0022C12.2868 10.0541 12.3275 10.1059 12.3786 10.1204C12.4341 10.1365 12.467 10.1935 12.4506 10.2488C12.4376 10.2938 12.3951 10.3236 12.3492 10.3236Z" fill="#408F95"/>
<path d="M8.27312 11.9339C8.23759 11.9339 8.20292 11.9262 8.16999 11.9101C8.0816 11.865 8.02613 11.757 8.0218 11.6193C8.01747 11.4951 8.05733 11.3361 8.18126 11.2622C8.28786 11.1984 8.46032 11.1975 8.54785 11.2979C8.58078 11.3353 8.59118 11.3761 8.59811 11.4152C8.61804 11.5317 8.64664 11.6916 8.52791 11.8174C8.46552 11.8829 8.36759 11.9339 8.27312 11.9339ZM8.26706 11.7264C8.28179 11.7315 8.33812 11.7137 8.37365 11.6763C8.41785 11.6295 8.40918 11.5564 8.39098 11.4501C8.38838 11.4348 8.38665 11.4297 8.38579 11.4288C8.37625 11.422 8.32079 11.4203 8.29046 11.4382C8.25666 11.4586 8.23152 11.5266 8.23152 11.5997C8.23152 11.678 8.25752 11.7196 8.26619 11.7256L8.26706 11.7264Z" fill="#408F95"/>
<path d="M20.9235 8.54458C20.8784 8.54458 20.8333 8.53353 20.7935 8.51057C20.6834 8.44765 20.6557 8.3201 20.6661 8.22997C20.6791 8.11263 20.7597 8.0446 20.8126 8.00039C20.8507 7.96808 20.8975 7.93491 20.9607 7.93151C21.0431 7.92641 21.1237 7.97573 21.1627 8.05481C21.1939 8.11858 21.1939 8.17555 21.1895 8.22742C21.1817 8.3184 21.1705 8.44254 21.0561 8.50972C21.0162 8.53268 20.9694 8.54458 20.9235 8.54458ZM20.8992 8.332C20.9148 8.34051 20.9365 8.33881 20.9486 8.332C20.9703 8.31925 20.9755 8.25888 20.9798 8.20956C20.9833 8.17215 20.9798 8.15939 20.9737 8.14494C20.9737 8.14324 20.972 8.14239 20.9711 8.14154C20.9677 8.14409 20.9625 8.14749 20.9547 8.15429C20.907 8.19511 20.8793 8.21892 20.8758 8.25378C20.8741 8.26568 20.8749 8.3184 20.8992 8.332Z" fill="#408F95"/>
<path d="M20.2619 8.68485C20.2186 8.68485 20.1753 8.67295 20.1397 8.64914C20.0834 8.61173 20.0479 8.54711 20.0435 8.47228C20.0383 8.3915 20.0695 8.31412 20.1259 8.26481C20.1796 8.21889 20.2576 8.19763 20.3339 8.20869C20.3971 8.21804 20.4482 8.2478 20.476 8.29287C20.4933 8.32093 20.5002 8.35324 20.4985 8.4C20.4959 8.46718 20.4924 8.57942 20.3945 8.64404C20.3547 8.6704 20.3079 8.684 20.2619 8.684V8.68485ZM20.2576 8.47823C20.2619 8.47823 20.2715 8.47823 20.2758 8.47483C20.2827 8.46803 20.2853 8.43742 20.2862 8.41446C20.2775 8.41446 20.2689 8.41786 20.2637 8.42211C20.2507 8.43317 20.2498 8.46803 20.2567 8.47908L20.2576 8.47823Z" fill="#408F95"/>
<path d="M18.9489 9.06413C18.9038 9.06413 18.8588 9.05307 18.8189 9.03011C18.708 8.96719 18.6811 8.83965 18.6915 8.74952C18.7045 8.63217 18.7851 8.56415 18.838 8.51908C18.8761 8.48677 18.9229 8.45361 18.9862 8.45021C19.0685 8.44596 19.15 8.49443 19.1881 8.5735C19.2193 8.63728 19.2193 8.69425 19.215 8.74611C19.2072 8.8371 19.1959 8.96124 19.0815 9.02756C19.0416 9.05052 18.9948 9.06243 18.9489 9.06243V9.06413ZM18.9246 8.85155C18.9402 8.86005 18.9628 8.85835 18.974 8.85155C18.9957 8.8388 19.0009 8.77843 19.0052 8.72911C19.0087 8.6917 19.0052 8.67894 18.9992 8.66449C18.9992 8.66279 18.9974 8.66193 18.9966 8.66108C18.9931 8.66364 18.9879 8.66704 18.9801 8.67384C18.9324 8.71465 18.9056 8.73846 18.9012 8.77332C18.8995 8.78523 18.9004 8.83795 18.9246 8.85155Z" fill="#408F95"/>
<path d="M7.58614 12.087C7.54281 12.087 7.49948 12.075 7.46395 12.0512C7.40761 12.0138 7.37208 11.9492 7.36775 11.8744C7.36255 11.7936 7.39375 11.7162 7.45008 11.6669C7.50381 11.621 7.58181 11.5997 7.65807 11.6108C7.72134 11.6201 7.77247 11.6499 7.8002 11.695C7.81753 11.7213 7.82447 11.7545 7.82273 11.8021C7.82013 11.8693 7.81667 11.9815 7.71874 12.0461C7.67887 12.0725 7.63207 12.0861 7.58614 12.0861V12.087ZM7.58181 11.8803C7.58614 11.8803 7.59567 11.8803 7.60001 11.8769C7.60694 11.8701 7.60954 11.8395 7.61127 11.8166C7.60261 11.8166 7.59394 11.82 7.58874 11.8242C7.57574 11.8361 7.57487 11.8701 7.58181 11.8812V11.8803Z" fill="#408F95"/>
<path d="M6.11438 13.0716C6.06238 13.0716 6.01299 13.058 5.97139 13.0316C5.82406 12.9372 5.83966 12.7314 5.88559 12.6167C5.93499 12.4934 6.05458 12.3658 6.20278 12.3786C6.27211 12.3845 6.31891 12.4202 6.33624 12.4338C6.45757 12.5265 6.5217 12.734 6.42464 12.8939C6.37351 12.9772 6.28424 13.041 6.18631 13.0631C6.16205 13.0682 6.13778 13.0716 6.11438 13.0716ZM6.18285 12.5843C6.15685 12.5843 6.10572 12.6337 6.08232 12.6923C6.05892 12.751 6.05632 12.8394 6.08752 12.859C6.09878 12.8658 6.11785 12.8675 6.13951 12.8624C6.18111 12.853 6.22358 12.8233 6.24438 12.7884C6.28597 12.7204 6.25044 12.6294 6.20711 12.5971C6.20104 12.592 6.19238 12.5852 6.18458 12.5852C6.18458 12.5852 6.18371 12.5852 6.18285 12.5852V12.5843Z" fill="#408F95"/>
<path d="M10.1925 7.41385C10.1405 7.41385 10.0911 7.40024 10.0495 7.37388C9.90218 7.2795 9.91778 7.07373 9.96371 6.95894C10.0131 6.83564 10.1344 6.7081 10.2809 6.72085C10.3502 6.72681 10.397 6.76252 10.4144 6.77612C10.5357 6.86966 10.5998 7.07628 10.5028 7.23614C10.4516 7.31947 10.3624 7.38324 10.2644 7.40535C10.2402 7.41045 10.2159 7.41385 10.1925 7.41385ZM10.1648 7.20042C10.176 7.20808 10.1951 7.20893 10.2168 7.20382C10.2584 7.19447 10.3008 7.16471 10.3216 7.12985C10.3632 7.06182 10.3268 6.97169 10.2844 6.93853C10.2783 6.93343 10.2696 6.92663 10.2618 6.92663C10.235 6.92323 10.183 6.97424 10.1596 7.03462C10.1362 7.09329 10.1336 7.18172 10.1648 7.20127V7.20042Z" fill="#408F95"/>
<path d="M13.6378 11.5965C13.5858 11.5965 13.5364 11.5829 13.4948 11.5565C13.3475 11.4621 13.3631 11.2563 13.409 11.1416C13.4584 11.0183 13.5772 10.8907 13.7262 10.9035C13.7955 10.9094 13.8423 10.9451 13.8597 10.9587C13.981 11.0514 14.0451 11.2589 13.9481 11.4188C13.8969 11.5029 13.8077 11.5659 13.7089 11.588C13.6846 11.5931 13.6604 11.5965 13.637 11.5965H13.6378ZM13.6101 11.383C13.6214 11.3898 13.6404 11.3915 13.6621 11.3864C13.7037 11.3771 13.7461 11.3473 13.7678 11.3125C13.8094 11.2444 13.773 11.1543 13.7305 11.1211C13.7245 11.116 13.7149 11.1092 13.708 11.1092C13.6864 11.1058 13.6292 11.1569 13.6058 11.2172C13.5824 11.2759 13.5798 11.3643 13.611 11.3839L13.6101 11.383Z" fill="#408F95"/>
<path d="M15.0949 16.6853C15.0429 16.6853 14.9935 16.6717 14.9519 16.6454C14.8045 16.551 14.8201 16.3452 14.8661 16.2304C14.9155 16.1071 15.0359 15.9796 15.1832 15.9923C15.2526 15.9983 15.2994 16.034 15.3167 16.0476C15.438 16.1403 15.5022 16.3478 15.4051 16.5076C15.354 16.5909 15.2647 16.6547 15.1668 16.6768C15.1425 16.6819 15.1182 16.6853 15.0949 16.6853ZM15.0671 16.4719C15.0784 16.4796 15.0974 16.4804 15.1191 16.4753C15.1607 16.466 15.2032 16.4362 15.224 16.4013C15.2656 16.3333 15.23 16.2423 15.1867 16.21C15.1806 16.2049 15.172 16.1981 15.1642 16.1981C15.1408 16.1939 15.0853 16.2457 15.0619 16.3061C15.0385 16.3648 15.0359 16.4532 15.0671 16.4728V16.4719Z" fill="#408F95"/>
<path d="M14.1813 14.1966C14.1458 14.1966 14.1111 14.1889 14.0782 14.1728C13.9898 14.1277 13.9343 14.0197 13.93 13.882C13.9257 13.7578 13.9655 13.5988 14.0895 13.5249C14.1961 13.4611 14.3685 13.4602 14.456 13.5606C14.489 13.598 14.4994 13.6388 14.5063 13.6779C14.5271 13.7944 14.5548 13.9543 14.4361 14.0801C14.3746 14.1456 14.2758 14.1966 14.1813 14.1966ZM14.1753 13.9891C14.19 13.9942 14.2463 13.9764 14.2819 13.9389C14.3261 13.8922 14.3174 13.8191 14.2992 13.7128C14.2966 13.6975 14.2949 13.6924 14.294 13.6915C14.2845 13.6847 14.229 13.683 14.1987 13.7009C14.1649 13.7213 14.1397 13.7893 14.1397 13.8624C14.1397 13.9406 14.1657 13.9823 14.1744 13.9883L14.1753 13.9891Z" fill="#408F95"/>
<path d="M13.9611 13.2442C13.9178 13.2442 13.8745 13.2323 13.8389 13.2085C13.7826 13.1711 13.7471 13.1064 13.7427 13.0316C13.7375 12.9508 13.7687 12.8734 13.8251 12.8241C13.8788 12.7782 13.9568 12.757 14.0331 12.768C14.0963 12.7774 14.1475 12.8071 14.1752 12.8522C14.1925 12.8786 14.1995 12.9117 14.1977 12.9593C14.1951 13.0265 14.1917 13.1387 14.0937 13.2034C14.0539 13.2297 14.0071 13.2433 13.9611 13.2433V13.2442ZM13.9568 13.0367C13.9611 13.0367 13.9707 13.0367 13.975 13.0333C13.9819 13.0265 13.9845 12.9959 13.9854 12.9729C13.9767 12.9729 13.9681 12.9763 13.9629 12.9806C13.9499 12.9925 13.949 13.0265 13.9559 13.0376L13.9568 13.0367Z" fill="#408F95"/>
<path d="M6.31856 4.08476C6.27523 4.08476 6.2319 4.07285 6.19637 4.04904C6.14004 4.01163 6.1045 3.94701 6.10017 3.87218C6.09497 3.7914 6.12617 3.71403 6.1825 3.66471C6.23623 3.61879 6.31423 3.59753 6.39049 3.60859C6.45376 3.61794 6.50402 3.6477 6.53262 3.69277C6.54995 3.71998 6.55689 3.75314 6.55515 3.79991C6.55255 3.86708 6.54909 3.97932 6.45116 4.04394C6.41129 4.0703 6.36449 4.08391 6.31856 4.08391V4.08476ZM6.31423 3.87813C6.31943 3.87813 6.3281 3.87813 6.33243 3.87473C6.33936 3.86793 6.34196 3.83732 6.34283 3.81436C6.33416 3.81436 6.3255 3.81776 6.3203 3.82201C6.3073 3.83307 6.30643 3.86793 6.31336 3.87898L6.31423 3.87813Z" fill="#408F95"/>
<path d="M6.83118 4.90543C6.77918 4.90543 6.72978 4.89182 6.68818 4.86546C6.54086 4.77108 6.55646 4.56531 6.60239 4.45052C6.65178 4.32722 6.77051 4.19968 6.91957 4.21243C6.98891 4.21838 7.0357 4.2541 7.05304 4.2677C7.17437 4.36038 7.2385 4.56786 7.14143 4.72771C7.0903 4.81104 7.00104 4.87482 6.90311 4.89692C6.87884 4.90202 6.85458 4.90543 6.83118 4.90543ZM6.89964 4.4182C6.87364 4.4182 6.82165 4.46752 6.79825 4.52619C6.77485 4.58486 6.77225 4.67329 6.80345 4.69285C6.81471 4.69965 6.83378 4.70135 6.85544 4.69625C6.89704 4.6869 6.93951 4.65714 6.96031 4.62228C7.00191 4.55425 6.96637 4.46327 6.92304 4.43096C6.91697 4.42586 6.90744 4.41905 6.90051 4.41905C6.90051 4.41905 6.89964 4.41905 6.89878 4.41905L6.89964 4.4182Z" fill="#408F95"/>
<path d="M7.66712 5.71575C7.61512 5.71575 7.56572 5.70214 7.52412 5.67578C7.37679 5.5814 7.39239 5.37563 7.43832 5.26084C7.48772 5.13754 7.60818 5.01085 7.75551 5.02275C7.82571 5.0287 7.87164 5.06442 7.88984 5.07802C8.01117 5.1707 8.0753 5.37818 7.97737 5.53803C7.92624 5.62136 7.83698 5.68514 7.73905 5.70724C7.71478 5.71234 7.69052 5.71575 7.66712 5.71575ZM7.63938 5.50232C7.65065 5.50912 7.66972 5.51082 7.69138 5.50572C7.73298 5.49637 7.77545 5.46661 7.79711 5.43175C7.83871 5.36372 7.80231 5.27359 7.75985 5.24043C7.75291 5.23533 7.74511 5.22852 7.73731 5.22852C7.71305 5.22427 7.65845 5.27699 7.63505 5.33651C7.61165 5.39518 7.60905 5.48361 7.63938 5.50317V5.50232Z" fill="#408F95"/>
</g>
<defs>
<filter id="filter0_ddd_2638_43689" x="0" y="0" width="26" height="26" filterUnits="userSpaceOnUse" color-interpolation-filters="sRGB">
<feFlood flood-opacity="0" result="BackgroundImageFix"/>
<feColorMatrix in="SourceAlpha" type="matrix" values="0 0 0 0 0 0 0 0 0 0 0 0 0 0 0 0 0 0 127 0" result="hardAlpha"/>
<feOffset dy="4"/>
<feGaussianBlur stdDeviation="2"/>
<feComposite in2="hardAlpha" operator="out"/>
<feColorMatrix type="matrix" values="0 0 0 0 0 0 0 0 0 0 0 0 0 0 0 0 0 0 0.25 0"/>
<feBlend mode="normal" in2="BackgroundImageFix" result="effect1_dropShadow_2638_43689"/>
<feColorMatrix in="SourceAlpha" type="matrix" values="0 0 0 0 0 0 0 0 0 0 0 0 0 0 0 0 0 0 127 0" result="hardAlpha"/>
<feOffset dy="4"/>
<feGaussianBlur stdDeviation="2"/>
<feComposite in2="hardAlpha" operator="out"/>
<feColorMatrix type="matrix" values="0 0 0 0 0 0 0 0 0 0 0 0 0 0 0 0 0 0 0.25 0"/>
<feBlend mode="normal" in2="effect1_dropShadow_2638_43689" result="effect2_dropShadow_2638_43689"/>
<feColorMatrix in="SourceAlpha" type="matrix" values="0 0 0 0 0 0 0 0 0 0 0 0 0 0 0 0 0 0 127 0" result="hardAlpha"/>
<feOffset dy="4"/>
<feGaussianBlur stdDeviation="2"/>
<feComposite in2="hardAlpha" operator="out"/>
<feColorMatrix type="matrix" values="0 0 0 0 0 0 0 0 0 0 0 0 0 0 0 0 0 0 0.25 0"/>
<feBlend mode="normal" in2="effect2_dropShadow_2638_43689" result="effect3_dropShadow_2638_43689"/>
<feBlend mode="normal" in="SourceGraphic" in2="effect3_dropShadow_2638_43689" result="shape"/>
</filter>
<clipPath id="clip0_2638_43689">
<rect width="18" height="18" fill="white" transform="translate(4)"/>
</clipPath>
</defs>
</svg>
